<?xml version="1.0" encoding="UTF-8"?>
<!DOCTYPE svg PUBLIC "-//W3C//DTD SVG 1.1//EN" "http://www.w3.org/Graphics/SVG/1.1/DTD/svg11.dtd">
<!-- Creator: CorelDRAW 2021 (64-Bit) -->
<svg xmlns="http://www.w3.org/2000/svg" xml:space="preserve" width="41.874mm" height="41.8742mm" version="1.1" style="shape-rendering:geometricPrecision; text-rendering:geometricPrecision; image-rendering:optimizeQuality; fill-rule:evenodd; clip-rule:evenodd"
viewBox="0 0 4187.4 4187.42"
 xmlns:xlink="http://www.w3.org/1999/xlink"
 xmlns:xodm="http://www.corel.com/coreldraw/odm/2003">
 <defs>
  <style type="text/css">
   <![CDATA[
    .fil0 {fill:black}
   ]]>
  </style>
 </defs>
 <g id="Layer_x0020_1">
  <metadata id="CorelCorpID_0Corel-Layer"/>
  <g id="_2384446072592">
   <path class="fil0" d="M3047.81 3652.06c0,-145.43 128.35,-279.16 270.7,-279.16 156.86,0 287.62,124.19 287.62,279.16 0,149.96 -129.2,279.16 -279.16,279.16 -149,0 -279.16,-129.75 -279.16,-279.16zm-1674.97 -279.16c149.97,0 279.16,129.19 279.16,279.16 0,149.96 -129.19,279.16 -279.16,279.16 -360.98,0 -363.52,-558.32 0,-558.32zm-527.02 -2511.98l3005.63 -0.48 -363.79 1954.13 -2275.55 0 -366.29 -1953.65zm-868.78 -719.53c0,213.22 178.3,160.73 448.35,160.73 13.75,165.2 125.99,530.33 165.78,747.84l288.93 1538.3c23.82,127.09 44.03,257.52 72.99,383.83 35.56,155.13 155.97,121.64 335.16,121.64 -118.93,75.47 -173.08,18.9 -323.81,175.31 -114.75,119.08 -149.92,240.78 -149.92,416.86 0,265.04 259.44,524.48 524.49,524.48l67.67 0c265.04,0 524.48,-259.44 524.48,-524.48 0,-176.08 -35.16,-297.78 -149.92,-416.86 -150.72,-156.41 -204.87,-99.84 -323.8,-175.31l1784.93 0c-118.93,75.47 -173.08,18.9 -323.8,175.31 -114.75,119.08 -149.92,240.78 -149.92,416.86 0,265.04 259.44,524.48 524.48,524.48l67.68 0c265.04,0 524.48,-259.44 524.48,-524.48 0,-176.08 -35.17,-297.78 -149.92,-416.86 -150.72,-156.41 -204.88,-99.84 -323.81,-175.31 394.31,0 324.18,-41.66 386.57,-391.69l248.58 -1324.88c32.5,-168.32 117.74,-517.17 117.74,-677.45 0,-191.65 -555.29,-118.43 -752.89,-118.43 -874.14,0 -1748.28,0 -2622.42,0 -67.66,-141.01 -60.22,-558.32 -245.32,-558.32l-448.35 0c-52.82,0 -118.43,65.61 -118.43,118.43z"/>
   <path class="fil0" d="M1931.16 1621.79c0,388.78 549.87,246.9 549.87,473.73 0,149.2 -253.79,157.5 -253.79,-25.38l-296.08 0c0,207.75 161.78,346.84 363.76,346.84l109.97 0c165.38,0 363.76,-144.81 363.76,-296.08 0,-222.97 -43.62,-284.21 -322.36,-362.86 -74.12,-20.91 -163.88,-37.27 -203.97,-92.47 -118.32,-162.93 208.38,-266.08 213.33,-43.78l296.08 0 0 -42.29c0,-407.57 -820.57,-421.49 -820.57,42.29z"/>
  </g>
 </g>
</svg>
